<mxfile host="app.diagrams.net" modified="2024-02-19T07:03:56.179Z" agent="Mozilla/5.0 (Windows NT 10.0; Win64; x64; rv:122.0) Gecko/20100101 Firefox/122.0" etag="U0Jkp66EUDni3FzOo5-b" version="23.1.1" type="device">
  <diagram name="Page-1" id="5f0bae14-7c28-e335-631c-24af17079c00">
    <mxGraphModel dx="737" dy="715" grid="1" gridSize="10" guides="1" tooltips="1" connect="1" arrows="1" fold="1" page="1" pageScale="1" pageWidth="1100" pageHeight="850" background="none" math="0" shadow="0">
      <root>
        <mxCell id="0" />
        <mxCell id="1" parent="0" />
        <mxCell id="39150e848f15840c-12" style="edgeStyle=none;rounded=0;html=1;dashed=1;labelBackgroundColor=none;startArrow=none;startFill=0;startSize=8;endArrow=open;endFill=0;endSize=16;fontFamily=Verdana;fontSize=12;entryX=0.895;entryY=0.967;entryDx=0;entryDy=0;exitX=0.75;exitY=0;exitDx=0;exitDy=0;entryPerimeter=0;" parent="1" source="39150e848f15840c-10" target="EtwHlYc7nydxbufBa8ut-18" edge="1">
          <mxGeometry relative="1" as="geometry">
            <mxPoint x="727" y="187" as="targetPoint" />
          </mxGeometry>
        </mxCell>
        <mxCell id="EtwHlYc7nydxbufBa8ut-14" value="SMB" style="text;html=1;align=center;verticalAlign=middle;resizable=0;points=[];autosize=1;strokeColor=none;fillColor=none;" parent="1" vertex="1">
          <mxGeometry x="150" y="250" width="50" height="30" as="geometry" />
        </mxCell>
        <mxCell id="EtwHlYc7nydxbufBa8ut-29" style="edgeStyle=none;rounded=0;html=1;dashed=1;labelBackgroundColor=none;startArrow=none;startFill=0;startSize=8;endArrow=open;endFill=0;endSize=16;fontFamily=Verdana;fontSize=12;entryX=1;entryY=0.5;entryDx=0;entryDy=0;exitX=0.125;exitY=0.017;exitDx=0;exitDy=0;exitPerimeter=0;" parent="1" source="EtwHlYc7nydxbufBa8ut-28" target="39150e848f15840c-5" edge="1">
          <mxGeometry relative="1" as="geometry">
            <mxPoint x="689" y="380" as="sourcePoint" />
            <mxPoint x="737" y="197" as="targetPoint" />
          </mxGeometry>
        </mxCell>
        <mxCell id="EtwHlYc7nydxbufBa8ut-30" style="edgeStyle=none;rounded=0;html=1;dashed=1;labelBackgroundColor=none;startArrow=none;startFill=0;startSize=8;endArrow=open;endFill=0;endSize=16;fontFamily=Verdana;fontSize=12;entryX=1;entryY=0.25;entryDx=0;entryDy=0;exitX=0;exitY=0.3;exitDx=0;exitDy=0;" parent="1" source="EtwHlYc7nydxbufBa8ut-28" target="EtwHlYc7nydxbufBa8ut-18" edge="1">
          <mxGeometry relative="1" as="geometry">
            <mxPoint x="560" y="170" as="sourcePoint" />
            <mxPoint x="290" y="178" as="targetPoint" />
          </mxGeometry>
        </mxCell>
        <mxCell id="EtwHlYc7nydxbufBa8ut-34" style="edgeStyle=none;rounded=0;html=1;dashed=1;labelBackgroundColor=none;startArrow=none;startFill=0;startSize=8;endArrow=open;endFill=0;endSize=16;fontFamily=Verdana;fontSize=12;exitX=0.632;exitY=1;exitDx=0;exitDy=0;exitPerimeter=0;entryX=0.317;entryY=0;entryDx=0;entryDy=0;entryPerimeter=0;" parent="1" source="EtwHlYc7nydxbufBa8ut-18" target="39150e848f15840c-10" edge="1">
          <mxGeometry relative="1" as="geometry">
            <mxPoint x="720" y="409" as="sourcePoint" />
            <mxPoint x="570" y="300" as="targetPoint" />
          </mxGeometry>
        </mxCell>
        <mxCell id="EtwHlYc7nydxbufBa8ut-40" value="&lt;div&gt;Обмен&lt;/div&gt;&amp;nbsp;Oracle PL/SQL" style="text;html=1;align=center;verticalAlign=middle;resizable=0;points=[];autosize=1;strokeColor=none;fillColor=none;" parent="1" vertex="1">
          <mxGeometry x="365" y="65" width="110" height="40" as="geometry" />
        </mxCell>
        <mxCell id="EtwHlYc7nydxbufBa8ut-41" style="edgeStyle=none;rounded=0;html=1;dashed=1;labelBackgroundColor=none;startArrow=none;startFill=0;startSize=8;endArrow=open;endFill=0;endSize=16;fontFamily=Verdana;fontSize=12;entryX=0.008;entryY=0.817;entryDx=0;entryDy=0;entryPerimeter=0;exitX=1;exitY=0.75;exitDx=0;exitDy=0;" parent="1" source="EtwHlYc7nydxbufBa8ut-18" target="EtwHlYc7nydxbufBa8ut-28" edge="1">
          <mxGeometry relative="1" as="geometry">
            <mxPoint x="360" y="310" as="sourcePoint" />
            <mxPoint x="415" y="368" as="targetPoint" />
            <Array as="points">
              <mxPoint x="430" y="210" />
            </Array>
          </mxGeometry>
        </mxCell>
        <mxCell id="EtwHlYc7nydxbufBa8ut-42" style="edgeStyle=none;rounded=0;html=1;dashed=1;labelBackgroundColor=none;startArrow=none;startFill=0;startSize=8;endArrow=open;endFill=0;endSize=16;fontFamily=Verdana;fontSize=12;entryX=0.442;entryY=-0.067;entryDx=0;entryDy=0;exitX=1;exitY=0.25;exitDx=0;exitDy=0;entryPerimeter=0;" parent="1" source="39150e848f15840c-5" target="EtwHlYc7nydxbufBa8ut-28" edge="1">
          <mxGeometry relative="1" as="geometry">
            <mxPoint x="440" y="30" as="sourcePoint" />
            <mxPoint x="300" y="80" as="targetPoint" />
          </mxGeometry>
        </mxCell>
        <mxCell id="39150e848f15840c-5" value="ORACLE DATBASE" style="shape=component;align=left;spacingLeft=36;rounded=0;shadow=0;comic=0;labelBackgroundColor=none;strokeWidth=1;fontFamily=Verdana;fontSize=12;html=1;movable=1;resizable=1;rotatable=1;deletable=1;editable=1;locked=0;connectable=1;" parent="1" vertex="1">
          <mxGeometry x="100" y="40" width="190" height="60" as="geometry" />
        </mxCell>
        <mxCell id="EtwHlYc7nydxbufBa8ut-18" value="Папка обмена" style="shape=component;align=left;spacingLeft=36;rounded=0;shadow=0;comic=0;labelBackgroundColor=none;strokeWidth=1;fontFamily=Verdana;fontSize=12;html=1;movable=1;resizable=1;rotatable=1;deletable=1;editable=1;locked=0;connectable=1;" parent="1" vertex="1">
          <mxGeometry x="100" y="130" width="190" height="60" as="geometry" />
        </mxCell>
        <mxCell id="39150e848f15840c-10" value="&lt;div&gt;Программа&lt;/div&gt;&lt;div&gt;заказа&lt;/div&gt;" style="shape=component;align=left;spacingLeft=36;rounded=0;shadow=0;comic=0;labelBackgroundColor=none;strokeWidth=1;fontFamily=Verdana;fontSize=12;html=1;" parent="1" vertex="1">
          <mxGeometry x="30" y="359" width="120" height="53" as="geometry" />
        </mxCell>
        <mxCell id="EtwHlYc7nydxbufBa8ut-31" value="&lt;div&gt;Локальная&lt;/div&gt;&lt;div&gt;СУБД&lt;/div&gt;" style="shape=component;align=left;spacingLeft=36;rounded=0;shadow=0;comic=0;labelBackgroundColor=none;strokeWidth=1;fontFamily=Verdana;fontSize=12;html=1;" parent="1" vertex="1">
          <mxGeometry x="30" y="490" width="120" height="53" as="geometry" />
        </mxCell>
        <mxCell id="39150e848f15840c-7" value="ОС" style="shape=component;align=left;spacingLeft=36;rounded=0;shadow=0;comic=0;labelBackgroundColor=none;strokeWidth=1;fontFamily=Verdana;fontSize=12;html=1;" parent="1" vertex="1">
          <mxGeometry x="570" y="102.5" width="120" height="60" as="geometry" />
        </mxCell>
        <mxCell id="39150e848f15840c-8" value="Принтер" style="html=1;rounded=0;shadow=0;comic=0;labelBackgroundColor=none;strokeWidth=1;fontFamily=Verdana;fontSize=12;align=center;" parent="1" vertex="1">
          <mxGeometry x="790" y="107.5" width="110" height="50" as="geometry" />
        </mxCell>
        <mxCell id="39150e848f15840c-13" style="edgeStyle=elbowEdgeStyle;rounded=0;html=1;labelBackgroundColor=none;startArrow=none;startFill=0;startSize=8;endArrow=none;endFill=0;endSize=16;fontFamily=Verdana;fontSize=12;" parent="1" target="39150e848f15840c-7" edge="1">
          <mxGeometry relative="1" as="geometry">
            <mxPoint x="640" y="197.5" as="sourcePoint" />
          </mxGeometry>
        </mxCell>
        <mxCell id="39150e848f15840c-16" style="edgeStyle=orthogonalEdgeStyle;rounded=0;html=1;dashed=1;labelBackgroundColor=none;startArrow=none;startFill=0;startSize=8;endArrow=open;endFill=0;endSize=16;fontFamily=Verdana;fontSize=12;" parent="1" source="39150e848f15840c-7" target="39150e848f15840c-8" edge="1">
          <mxGeometry relative="1" as="geometry" />
        </mxCell>
        <mxCell id="EtwHlYc7nydxbufBa8ut-28" value="&lt;div&gt;Программа &lt;br&gt;&lt;/div&gt;&lt;div&gt;печати&lt;br&gt;&lt;/div&gt;" style="shape=component;align=left;spacingLeft=36;rounded=0;shadow=0;comic=0;labelBackgroundColor=none;strokeWidth=1;fontFamily=Verdana;fontSize=12;html=1;" parent="1" vertex="1">
          <mxGeometry x="570" y="190" width="120" height="60" as="geometry" />
        </mxCell>
        <mxCell id="yec_qbjHcsgYilhkVPU8-1" value="SQL" style="text;html=1;align=center;verticalAlign=middle;resizable=0;points=[];autosize=1;strokeColor=none;fillColor=none;" vertex="1" parent="1">
          <mxGeometry x="70" y="430" width="50" height="30" as="geometry" />
        </mxCell>
        <mxCell id="yec_qbjHcsgYilhkVPU8-3" style="edgeStyle=none;rounded=0;html=1;dashed=1;labelBackgroundColor=none;startArrow=none;startFill=0;startSize=8;endArrow=open;endFill=0;endSize=16;fontFamily=Verdana;fontSize=12;exitX=0.392;exitY=1.019;exitDx=0;exitDy=0;exitPerimeter=0;entryX=0.392;entryY=-0.038;entryDx=0;entryDy=0;entryPerimeter=0;" edge="1" parent="1" source="39150e848f15840c-10" target="EtwHlYc7nydxbufBa8ut-31">
          <mxGeometry relative="1" as="geometry">
            <mxPoint x="230" y="200" as="sourcePoint" />
            <mxPoint x="78" y="369" as="targetPoint" />
          </mxGeometry>
        </mxCell>
        <mxCell id="yec_qbjHcsgYilhkVPU8-4" style="edgeStyle=none;rounded=0;html=1;dashed=1;labelBackgroundColor=none;startArrow=none;startFill=0;startSize=8;endArrow=open;endFill=0;endSize=16;fontFamily=Verdana;fontSize=12;entryX=0.75;entryY=1;entryDx=0;entryDy=0;exitX=0.75;exitY=0;exitDx=0;exitDy=0;" edge="1" parent="1" source="EtwHlYc7nydxbufBa8ut-31" target="39150e848f15840c-10">
          <mxGeometry relative="1" as="geometry">
            <mxPoint x="120" y="480" as="sourcePoint" />
            <mxPoint x="78" y="369" as="targetPoint" />
          </mxGeometry>
        </mxCell>
        <mxCell id="yec_qbjHcsgYilhkVPU8-5" value="Postscript" style="text;html=1;align=center;verticalAlign=middle;resizable=0;points=[];autosize=1;strokeColor=none;fillColor=none;" vertex="1" parent="1">
          <mxGeometry x="690" y="100" width="80" height="30" as="geometry" />
        </mxCell>
        <mxCell id="yec_qbjHcsgYilhkVPU8-6" value="SMB" style="text;html=1;align=center;verticalAlign=middle;resizable=0;points=[];autosize=1;strokeColor=none;fillColor=none;" vertex="1" parent="1">
          <mxGeometry x="410" y="180" width="50" height="30" as="geometry" />
        </mxCell>
      </root>
    </mxGraphModel>
  </diagram>
</mxfile>
